<svg xmlns="http://www.w3.org/2000/svg" viewBox="0 0 21 22" fill="#a9a9a9"><path d="M19.3 2h-2.8V.6c0-.4-.3-.7-.7-.7-.4 0-.7.3-.7.7V2h-3.9V.6c0-.4-.3-.7-.7-.7-.4 0-.7.3-.7.7V2H5.9V.6c0-.3-.3-.6-.6-.6-.4 0-.7.3-.7.6V2H1.8C.8 2 0 2.8 0 3.9v16.3c0 1 .8 1.8 1.8 1.8h17.5c1 0 1.7-.8 1.7-1.8V3.9c0-1.1-.8-1.9-1.7-1.9zm.4 18.2c0 .3-.2.5-.4.5H1.8c-.2 0-.4-.2-.4-.5V3.9c0-.3.2-.5.4-.5h2.8v1.4c0 .4.3.7.7.7.4 0 .7-.3.7-.7V3.4h3.9v1.4c0 .4.3.7.7.7.4 0 .7-.3.7-.7V3.4h3.9v1.4c0 .4.3.7.7.7.4 0 .7-.3.7-.7V3.4h2.8c.2 0 .4.2.4.5l-.1 16.3zM4.6 8.2h2.6v2.1H4.6V8.2zm0 3.5h2.6v2.1H4.6v-2.1zm0 3.4h2.6v2.1H4.6v-2.1zm4.6 0h2.6v2.1H9.2v-2.1zm0-3.4h2.6v2.1H9.2v-2.1zm0-3.5h2.6v2.1H9.2V8.2zm4.6 6.9h2.6v2.1h-2.6v-2.1zm0-3.4h2.6v2.1h-2.6v-2.1zm0-3.5h2.6v2.1h-2.6V8.2z"/></svg>