<svg xmlns="http://www.w3.org/2000/svg" viewBox="0 0 113 39"><path d="M46.8 28.2c.2 0 .4 0 .6-.1v1.4c-.4.1-.8.2-1.2.2-.7.1-1.4-.3-1.8-1-.9.8-2.1 1.2-3.3 1.1-1.6 0-3.1-.9-3.1-2.7 0-2.2 2.1-2.9 3.9-2.9.8 0 1.5.1 2.3.3v-.3c0-1.1-.8-1.9-2.3-1.9-1.1 0-2.2.2-3.1.7v-1.8c1.1-.4 2.2-.6 3.4-.6 2.5 0 4 1.2 4 3.8v3.1c0 .3.2.6.5.6 0 .1.1.1.1.1zM40.1 27c.1.8.7 1.4 1.5 1.3h.1c.9 0 1.9-.3 2.5-1v-1.5c-.6-.1-1.3-.2-1.9-.2-1 0-2.2.3-2.2 1.4zm13-6.4c.9 0 1.9.2 2.7.7v1.8c-.7-.5-1.6-.7-2.4-.7-1.6-.1-3 1-3.1 2.6s1 3 2.6 3.1h.5c.9 0 1.8-.2 2.5-.7v1.8c-.9.5-1.9.7-2.9.6-2.4.2-4.5-1.7-4.7-4.1v-.4c-.1-2.5 1.9-4.6 4.4-4.7h.4zm12.7 7.6c.2 0 .4 0 .6-.1v1.4c-.4.1-.8.2-1.2.2-.7.1-1.4-.3-1.8-1-.9.8-2.1 1.2-3.3 1.1-1.6 0-3.1-.9-3.1-2.7 0-2.2 2.1-2.9 3.9-2.9.8 0 1.5.1 2.3.3v-.3c0-1.1-.8-1.9-2.3-1.9-1.1 0-2.2.2-3.1.7v-1.8c1.1-.4 2.2-.6 3.4-.6 2.5 0 4 1.2 4 3.8v3.1c0 .3.2.6.5.6 0 .1.1.1.1.1zM59.1 27c.1.8.7 1.4 1.5 1.3h.1c.9 0 1.9-.3 2.5-1v-1.5c-.6-.1-1.3-.2-1.9-.2-1.1 0-2.2.3-2.2 1.4zm17.6-10.1v12.8h-1.8v-1.4c-.8 1-2 1.7-3.4 1.6-2.5-.2-4.5-2.4-4.3-4.9.2-2.3 2-4.2 4.3-4.3 1.2 0 2.4.5 3.1 1.4V17l2.1-.1zm-4.8 5.4c-1.6 0-2.9 1.3-2.9 2.9 0 1.6 1.3 2.9 2.9 2.9 1.2 0 2.3-.7 2.8-1.8v-2.1c-.5-1.1-1.6-1.9-2.8-1.9zM83 20.6c3.5 0 4.7 2.8 4.1 5.3h-6.6c.2 1.6 1.8 2.2 3.4 2.2 1 0 1.9-.2 2.8-.6v1.7c-1 .4-2.1.6-3.1.6-2.7 0-5-1.5-5-4.6-.1-2.4 1.7-4.5 4.2-4.6h.2zm.1 1.6c-1.3-.1-2.5.9-2.6 2.2v.1h4.9c.1-1.1-.7-2.1-1.8-2.3h-.5zm6 7.4v-8.8h1.7v1.1c.7-.8 1.8-1.3 2.9-1.3 1.1-.1 2.1.5 2.7 1.4.8-.9 1.9-1.4 3.1-1.4 1.8-.1 3.3 1.3 3.3 3.1v5.9h-2v-5.4c.1-.9-.6-1.7-1.5-1.8h-.2c-.9.1-1.7.5-2.2 1.2v6.1h-2v-5.4c.1-.9-.6-1.7-1.5-1.8h-.2c-.9.1-1.8.6-2.3 1.4v5.9h-2l.2-.2zm22.4-8.7h2l-4.1 9.9c-1 2.3-2.2 3-3.5 3-.4 0-.8-.1-1.1-.1V32c.3.1.6.1.9.1 1 0 1.7-.7 2.2-2l.2-.4-4.2-8.8h2.1l3 6.6 2.5-6.6zM40.7 1.5v5c.7-.8 1.8-1.2 2.8-1.2 1.9-.1 3.5 1.3 3.6 3.2V14.3h-2V9.1c.1-1-.6-2-1.7-2.1h-.3c-1 .1-1.9.6-2.4 1.5v5.8h-2V1.5h2zm11.7.9v3.1h3.2v1.7h-3.2v4c0 1.1.5 1.5 1.7 1.5.6 0 1.2-.1 1.8-.4V14c-.8.3-1.6.4-2.4.4-1.5.2-2.8-.9-3-2.3V7.2h-1.6V5.5h1.6V2.9l1.9-.5zm5.7 11.9V5.5h1.7v1.1c.7-.8 1.8-1.3 2.9-1.3 1.1-.1 2.1.5 2.7 1.4.8-.9 1.9-1.4 3.1-1.4 1.8-.1 3.3 1.3 3.3 3.1v5.9h-2V8.9c.2-.9-.5-1.8-1.4-1.9h-.2c-.9.1-1.7.5-2.2 1.2v6.1h-2V8.9c.1-.9-.6-1.8-1.5-1.9h-.2c-.9.1-1.8.6-2.3 1.4v5.9h-2 .1zM74.7 1.5h1.9v12.8h-1.9V1.5zM15.4 0h-.2L0 1.6v28l15.3 9.1 15.3-9.1v-28L15.4 0zm13.2 28.5l-13.3 7.9L2 28.5V17l13.2 7.9v1.4l-9.1-5.4v1.4l9.1 5.5v1.5l-9.1-5.4v1.4l9.1 5.5 9.2-5.5v-5.9l4.1-2.5.1 11.6zm0-13.2L25 17.4l-1.7 1-8-4.8V15l6.8 4.1H22l-.1.1-1 .6-5.6-3.4v1.4l4.5 2.6-1 .7-3.4-2v1.4l2.2 1.3-2.3 1.4-13.2-7.8 13.2-7.9 13.3 7.8zm0-1.4L15.2 6 2 13.9V3.4L15.3 2l13.3 1.4v10.5z"/></svg>